name C:\Users\Nicos\Documents\OpenSimProjects\SprintingProject\Study1\PredictiveResults\IC_pred_Sprinting_optimum_26-October-2023__10-52-28___Nominal_p02_maxVel_01.mot
datacolumns 38
datarows 11
range 0.16021409 0.17123972
endheader
                time	/jointset/ground_pelvis/pelvis_tilt/value	/jointset/ground_pelvis/pelvis_list/value	/jointset/ground_pelvis/pelvis_rotation/value	/jointset/ground_pelvis/pelvis_tx/value	/jointset/ground_pelvis/pelvis_ty/value	/jointset/ground_pelvis/pelvis_tz/value	/jointset/hip_r/hip_flexion_r/value	/jointset/hip_r/hip_adduction_r/value	/jointset/hip_r/hip_rotation_r/value	/jointset/knee_r/knee_angle_r/value	/jointset/ankle_r/ankle_angle_r/value	/jointset/subtalar_r/subtalar_angle_r/value	/jointset/mtp_r/mtp_angle_r/value	/jointset/hip_l/hip_flexion_l/value	/jointset/hip_l/hip_adduction_l/value	/jointset/hip_l/hip_rotation_l/value	/jointset/knee_l/knee_angle_l/value	/jointset/ankle_l/ankle_angle_l/value	/jointset/subtalar_l/subtalar_angle_l/value	/jointset/mtp_l/mtp_angle_l/value	/jointset/back/lumbar_extension/value	/jointset/back/lumbar_bending/value	/jointset/back/lumbar_rotation/value	/jointset/acromial_r/arm_flex_r/value	/jointset/acromial_r/arm_add_r/value	/jointset/acromial_r/arm_rot_r/value	/jointset/elbow_r/elbow_flex_r/value	/jointset/radioulnar_r/pro_sup_r/value	/jointset/radius_hand_r/wrist_flex_r/value	/jointset/radius_hand_r/wrist_dev_r/value	/jointset/acromial_l/arm_flex_l/value	/jointset/acromial_l/arm_add_l/value	/jointset/acromial_l/arm_rot_l/value	/jointset/elbow_l/elbow_flex_l/value	/jointset/radioulnar_l/pro_sup_l/value	/jointset/radius_hand_l/wrist_flex_l/value	/jointset/radius_hand_l/wrist_dev_l/value	
          0.16021409	         -9.68809839	          5.91990267	        -15.68296125	          1.24892247	          0.96405145	          0.30702380	         -1.18670335	        -14.04857758	          8.67939375	        -54.43724666	        -30.34126234	        -14.25416697	         -7.94077022	         84.69948977	        -10.70792330	          2.82075322	        -95.65157337	        -12.76650419	        -23.79329393	         15.66549035	         -9.79199254	         -3.71614420	         10.78922973	         88.71048553	          0.91050412	         -0.00002972	        106.11449743	         54.23806212	        -28.51077489	          7.80950926	        -74.32870257	          0.94631211	         -0.00750429	         76.16404644	         53.17719042	         -9.88060345	          7.77525819	
          0.16086043	         -9.69041944	          5.92180145	        -15.62850113	          1.25629744	          0.96431198	          0.30716428	         -1.19163538	        -14.02958751	          8.73758167	        -54.84465119	        -30.42214427	        -14.13588802	         -7.79523549	         84.64574357	        -10.75696721	          2.73447677	        -94.85972445	        -13.04278674	        -23.85340919	         15.66567736	         -9.84911782	         -3.78712450	         10.77113766	         88.71025082	          0.87953508	         -0.00008714	        106.02132593	         54.13543304	        -28.44419733	          7.78959281	        -74.22483459	          0.93349547	         -0.01466038	         75.60560684	         53.28912116	         -9.94631457	          7.75541713	
          0.16290260	         -9.67540193	          5.92608487	        -15.45626459	          1.27957887	          0.96519281	          0.30761788	         -1.21566804	        -13.96612059	          8.91329824	        -56.13648474	        -30.61845034	        -13.79897319	         -7.35501582	         84.39638065	        -10.90303258	          2.44032738	        -92.32457164	        -13.90430097	        -24.03509265	         15.66597717	        -10.05937483	         -4.01989179	         10.71522293	         88.65705763	          0.73854016	         -0.00247424	        105.78089581	         53.85139659	        -28.23329062	          7.72663956	        -73.86130791	          0.87673554	         -0.06924486	         73.90018058	         53.65150840	        -10.16438620	          7.69223376	
          0.16438265	         -9.63763676	          5.92447595	        -15.33085790	          1.29643917	          0.96589239	          0.30795391	         -1.24980955	        -13.91593523	          9.02957524	        -57.07331402	        -30.70657871	        -13.61288552	         -7.06398196	         84.13580738	        -10.99857638	          2.21005753	        -90.46222016	        -14.50952239	        -24.15260791	         15.66632960	        -10.24662183	         -4.19414685	         10.67535623	         88.56965314	          0.59538929	         -0.00547606	        105.65646153	         53.68410860	        -28.08012556	          7.68103493	        -73.56759400	          0.82139258	         -0.14569283	         72.72744304	         53.92249577	        -10.33205432	          7.64715071	
          0.16438265	         -9.63763676	          5.92447595	        -15.33085790	          1.29643917	          0.96589239	          0.30795391	         -1.24980955	        -13.91593523	          9.02957524	        -57.07331402	        -30.70657871	        -13.61288552	         -7.06398196	         84.13580738	        -10.99857638	          2.21005753	        -90.46222016	        -14.50952239	        -24.15260791	         15.66632960	        -10.24662183	         -4.19414685	         10.67535623	         88.56965314	          0.59538929	         -0.00547606	        105.65646153	         53.68410860	        -28.08012556	          7.68103493	        -73.56759400	          0.82139258	         -0.14569283	         72.72744304	         53.92249577	        -10.33205432	          7.64715071	
          0.16502899	         -9.61264849	          5.92178874	        -15.27581579	          1.30380037	          0.96621561	          0.30810196	         -1.27127303	        -13.89273792	          9.07662098	        -57.48164342	        -30.73146042	        -13.55182761	         -6.94658322	         83.99993873	        -11.03704482	          2.10586760	        -89.64404875	        -14.76669879	        -24.19870298	         15.66635104	        -10.33921364	         -4.27106801	         10.65792558	         88.51897877	          0.52207529	         -0.00647398	        105.61427648	         53.62082367	        -28.01327024	          7.66120789	        -73.43215497	          0.79374049	         -0.19018342	         72.23359364	         54.04288240	        -10.40752264	          7.62724882	
          0.16707116	         -9.49839028	          5.90315084	        -15.10306858	          1.32705720	          0.96730920	          0.30857608	         -1.36699810	        -13.81287792	          9.21174255	        -58.76634764	        -30.76776859	        -13.45142549	         -6.62551355	         83.48316776	        -11.14720992	          1.76561144	        -87.04676572	        -15.54296228	        -24.31803621	         15.66600210	        -10.67664712	         -4.51480442	         10.60602445	         88.30587122	          0.24728754	         -0.00924050	        105.54518906	         53.46520887	        -27.80182816	          7.59834185	        -72.97525036	          0.68525993	         -0.35796813	         70.74626405	         54.43112271	        -10.65368101	          7.56425611	
          0.16855121	         -9.38205879	          5.87960054	        -14.98152788	          1.34391416	          0.96816944	          0.30892695	         -1.46172379	        -13.74894200	          9.29982792	        -59.69153923	        -30.76198663	        -13.45478680	         -6.44694751	         83.02791412	        -11.21799251	          1.51050663	        -85.15935183	        -16.06591975	        -24.37761514	         15.66400281	        -10.96326861	         -4.69146268	         10.57461730	         88.09931902	          0.00717108	         -0.01300657	        105.56142451	         53.39410250	        -27.64868214	          7.55272776	        -72.61757280	          0.58471681	         -0.50200117	         69.73767137	         54.72028595	        -10.83937017	          7.51872242	
          0.16855121	         -9.38205879	          5.87960054	        -14.98152788	          1.34391416	          0.96816944	          0.30892695	         -1.46172379	        -13.74894200	          9.29982792	        -59.69153923	        -30.76198663	        -13.45478680	         -6.44694751	         83.02791412	        -11.21799251	          1.51050663	        -85.15935183	        -16.06591975	        -24.37761514	         15.66400281	        -10.96326861	         -4.69146268	         10.57461730	         88.09931902	          0.00717108	         -0.01300657	        105.56142451	         53.39410250	        -27.64868214	          7.55272776	        -72.61757280	          0.58471681	         -0.50200117	         69.73767137	         54.72028595	        -10.83937017	          7.51872242	
          0.16919755	         -9.32244690	          5.86661432	        -14.93002501	          1.35127686	          0.96856262	          0.30908233	         -1.50943809	        -13.71951964	          9.33644332	        -60.09386100	        -30.75291794	        -13.47292089	         -6.38461246	         82.80846953	        -11.24689433	          1.39736493	        -84.33545186	        -16.28262630	        -24.39620051	         15.66201297	        -11.09934451	         -4.76848854	         10.56330095	         87.99492263	         -0.10848781	         -0.01554810	        105.58731186	         53.37388119	        -27.58191638	          7.53281229	        -72.45466273	          0.53466398	         -0.57025594	         69.31549904	         54.84861294	        -10.92231251	          7.49880360	
          0.17123972	         -9.09880441	          5.81484913	        -14.77684115	          1.37454669	          0.96987279	          0.30958316	         -1.68359516	        -13.62142865	          9.44927065	        -61.35845112	        -30.70234173	        -13.56721825	         -6.25272210	         82.03539021	        -11.33250506	          1.03438663	        -81.74058584	        -16.91629680	        -24.42485953	         15.64577271	        -11.57198147	         -5.01117232	         10.54013955	         87.61043937	         -0.51706819	         -0.02455938	        105.72925569	         53.35261285	        -27.37182007	          7.46985330	        -71.91520084	          0.35445687	         -0.81454782	         68.05463924	         55.26119240	        -11.19104955	          7.43583955	
